%
M48
M72
T01C0.0240
T02C0.0315
T03C0.0320
T04C0.0354
T05C0.0400
T06C0.0866
T07C0.1180
T08C0.1250
%
T01
X13305Y3750
X17505Y5150
X19105Y1750
X24905Y7150
X22705Y8350
X23705Y11750
X19705Y13550
X16705Y13950
X17505Y16350
X19105Y16950
X20705Y16750
X20505Y18550
X20505Y20950
X19105Y22550
X21705Y24150
X23505Y23350
X24705Y22550
X27905Y25350
X29705Y27150
X37905Y17950
X34105Y11750
X34905Y9350
X28305Y15350
X24705Y17550
X12505Y25750
T02
X13405Y18650
X13405Y17650
T03
X10905Y2650
X11905Y2650
X15905Y2650
X16905Y2650
X20905Y2650
X21905Y2650
X26405Y2650
X27405Y2650
X30905Y2650
X31905Y2650
X35905Y2650
X36905Y2650
X36905Y7650
X35905Y7650
X31905Y7650
X30905Y7650
X27405Y7650
X26405Y7650
X21905Y7650
X20905Y7650
X16905Y7650
X15905Y7650
X11905Y7650
X10905Y7650
X10905Y12650
X11905Y12650
X15905Y12650
X16905Y12650
X20905Y12650
X21905Y12650
X25905Y12650
X26905Y12650
X30905Y12650
X31905Y12650
X35905Y12650
X36905Y12650
X36905Y17650
X35905Y17650
X31905Y17650
X30905Y17650
X26905Y17650
X25905Y17650
X21905Y17650
X20905Y17650
X16905Y17650
X15905Y17650
X11905Y17650
X10905Y17650
X10905Y22650
X11905Y22650
X15905Y22650
X16905Y22650
X20905Y22650
X21905Y22650
X25905Y22650
X26905Y22650
X30905Y22650
X31905Y22650
X35905Y22650
X36905Y22650
X36905Y27650
X35905Y27650
X31905Y27650
X30905Y27650
X26905Y27650
X25905Y27650
X21905Y27650
X20905Y27650
X16905Y27650
X15905Y27650
X11905Y27650
X10905Y27650
T04
X19405Y25150
X23405Y25150
X26405Y25150
X30405Y25150
X28405Y20150
X24405Y20150
X23405Y15150
X26405Y15150
X30405Y15150
X28405Y10150
X24405Y10150
X23905Y5150
X26405Y5150
X30405Y5150
X19905Y5150
X19405Y15150
T05
X18905Y20150
X19905Y20150
X17905Y20150
X12885Y19650
X12885Y20650
X12885Y15650
X12885Y14650
X17905Y10150
X18905Y10150
X19905Y10150
X19405Y4130
X18405Y4130
X23405Y4130
X24405Y4130
X37365Y14650
X37365Y15650
X37365Y19650
X37365Y20650
X24405Y28610
X23405Y28610
X19405Y28610
X18405Y28610
T06
X11405Y19650
X11405Y15650
T07
X12333Y11250
X13514Y9400
X11151Y9400
T08
X13905Y5150
X33905Y5150
X33905Y25150
X13905Y25150
M30
