G75*
G70*
%OFA0B0*%
%FSLAX24Y24*%
%IPPOS*%
%LPD*%
%AMOC8*
5,1,8,0,0,1.08239X$1,22.5*
%
%ADD10C,0.0740*%
%ADD11C,0.0600*%
%ADD12C,0.0475*%
%ADD13C,0.1299*%
%ADD14C,0.1770*%
%ADD15C,0.0500*%
%ADD16C,0.0400*%
D10*
X010905Y002650D03*
X011905Y002650D03*
X015905Y002650D03*
X016905Y002650D03*
X018405Y004130D03*
X019405Y004130D03*
X019905Y005150D03*
X020905Y002650D03*
X021905Y002650D03*
X023405Y004130D03*
X024405Y004130D03*
X023905Y005150D03*
X026405Y005150D03*
X026405Y002650D03*
X027405Y002650D03*
X030405Y005150D03*
X030905Y002650D03*
X031905Y002650D03*
X035905Y002650D03*
X036905Y002650D03*
X036905Y007650D03*
X035905Y007650D03*
X031905Y007650D03*
X030905Y007650D03*
X028405Y010150D03*
X027405Y007650D03*
X026405Y007650D03*
X024405Y010150D03*
X025905Y012650D03*
X026905Y012650D03*
X026405Y015150D03*
X023405Y015150D03*
X021905Y017650D03*
X020905Y017650D03*
X019405Y015150D03*
X016905Y017650D03*
X015905Y017650D03*
X012885Y015650D03*
X012885Y014650D03*
X011905Y012650D03*
X010905Y012650D03*
X015905Y012650D03*
X016905Y012650D03*
X020905Y012650D03*
X021905Y012650D03*
X021905Y007650D03*
X020905Y007650D03*
X016905Y007650D03*
X015905Y007650D03*
X011905Y007650D03*
X010905Y007650D03*
X010905Y017650D03*
X011905Y017650D03*
X012885Y019650D03*
X012885Y020650D03*
X011905Y022650D03*
X010905Y022650D03*
X015905Y022650D03*
X016905Y022650D03*
X019405Y025150D03*
X020905Y027650D03*
X021905Y027650D03*
X023405Y028610D03*
X024405Y028610D03*
X025905Y027650D03*
X026905Y027650D03*
X026405Y025150D03*
X023405Y025150D03*
X021905Y022650D03*
X020905Y022650D03*
X024405Y020150D03*
X025905Y017650D03*
X026905Y017650D03*
X028405Y020150D03*
X026905Y022650D03*
X025905Y022650D03*
X030405Y025150D03*
X030905Y027650D03*
X031905Y027650D03*
X035905Y027650D03*
X036905Y027650D03*
X036905Y022650D03*
X035905Y022650D03*
X037365Y020650D03*
X037365Y019650D03*
X036905Y017650D03*
X035905Y017650D03*
X037365Y015650D03*
X037365Y014650D03*
X036905Y012650D03*
X035905Y012650D03*
X031905Y012650D03*
X030905Y012650D03*
X030405Y015150D03*
X030905Y017650D03*
X031905Y017650D03*
X031905Y022650D03*
X030905Y022650D03*
X019405Y028610D03*
X018405Y028610D03*
X016905Y027650D03*
X015905Y027650D03*
X011905Y027650D03*
X010905Y027650D03*
D11*
X017905Y020450D02*
X017905Y019850D01*
X018905Y019850D02*
X018905Y020450D01*
X019905Y020450D02*
X019905Y019850D01*
X019905Y010450D02*
X019905Y009850D01*
X018905Y009850D02*
X018905Y010450D01*
X017905Y010450D02*
X017905Y009850D01*
D12*
X013642Y017650D02*
X013168Y017650D01*
X013168Y018650D02*
X013642Y018650D01*
D13*
X011405Y019650D03*
X011405Y015650D03*
D14*
X012333Y011250D03*
X013514Y009400D03*
X011151Y009400D03*
D15*
X011305Y009550D01*
X012705Y010950D01*
X012333Y011250D01*
X012505Y011150D01*
X016905Y011150D01*
X017905Y010150D01*
X018905Y010150D02*
X018905Y011350D01*
X023105Y011350D01*
X024305Y010150D01*
X024405Y010150D01*
X023705Y008550D02*
X023605Y008450D01*
X024905Y007150D01*
X025505Y006750D02*
X029905Y006750D01*
X030705Y007550D01*
X030905Y007550D01*
X030905Y007650D01*
X030905Y006750D02*
X036305Y006750D01*
X036905Y007350D01*
X036905Y007650D01*
X037905Y007950D02*
X037905Y003550D01*
X029505Y003550D01*
X027705Y001750D01*
X019105Y001750D01*
X018305Y001950D02*
X018305Y000950D01*
X035505Y000950D01*
X036905Y002350D01*
X036905Y002650D01*
X030905Y006750D02*
X030105Y005950D01*
X027305Y005950D01*
X026505Y005150D01*
X026405Y005150D01*
X025505Y004750D02*
X025505Y006750D01*
X023905Y006750D02*
X023905Y005150D01*
X025505Y004750D02*
X026105Y004150D01*
X027305Y004150D01*
X027305Y002750D01*
X027405Y002650D01*
X026405Y002650D02*
X025905Y003150D01*
X023105Y003150D01*
X021905Y004350D01*
X021905Y007650D01*
X022705Y007950D02*
X022705Y008350D01*
X022705Y007950D02*
X023905Y006750D01*
X023605Y008450D02*
X021905Y010150D01*
X019905Y010150D01*
X020905Y007650D02*
X020905Y007550D01*
X019905Y007550D01*
X017505Y005150D01*
X017305Y004350D02*
X014805Y006850D01*
X014705Y006750D01*
X010905Y006750D01*
X010905Y007650D01*
X013514Y009400D02*
X013705Y009350D01*
X013705Y007950D01*
X014805Y006850D01*
X017305Y004350D02*
X018105Y004350D01*
X018305Y004150D01*
X018405Y004130D01*
X019905Y003350D02*
X019105Y002550D01*
X018905Y002550D01*
X018305Y001950D01*
X019905Y003350D02*
X020305Y003350D01*
X020305Y004750D01*
X019905Y005150D01*
X015905Y002750D02*
X015905Y002650D01*
X015905Y002750D02*
X014905Y003750D01*
X013305Y003750D01*
X023705Y008550D02*
X034105Y008550D01*
X034905Y009350D01*
X034105Y011750D02*
X037905Y007950D01*
X037905Y011750D02*
X035105Y011750D01*
X034305Y012550D01*
X033105Y012550D01*
X032305Y011750D01*
X023705Y011750D01*
X021905Y012650D02*
X021905Y012750D01*
X023305Y014150D01*
X024105Y014150D01*
X025905Y015950D01*
X025905Y017650D01*
X024705Y017550D02*
X021905Y017550D01*
X021905Y017650D01*
X020905Y017650D02*
X020905Y017750D01*
X018905Y017750D01*
X017505Y016350D01*
X019105Y016950D02*
X020305Y016950D01*
X020505Y016750D01*
X020705Y016750D01*
X020505Y018550D02*
X027905Y018550D01*
X028705Y019350D01*
X036505Y019350D01*
X037905Y017950D01*
X036905Y017950D02*
X036905Y017650D01*
X036905Y017950D02*
X036305Y018550D01*
X029505Y018550D01*
X026505Y015550D01*
X026505Y015150D01*
X026405Y015150D01*
X026905Y014350D02*
X027505Y014950D01*
X027505Y015550D01*
X029505Y017550D01*
X030905Y017550D01*
X030905Y017650D01*
X031905Y017650D02*
X031905Y017150D01*
X035905Y013150D01*
X035905Y012650D01*
X036505Y013550D02*
X037305Y013550D01*
X037905Y012950D01*
X037905Y011750D01*
X036505Y013550D02*
X036505Y014950D01*
X037105Y015550D01*
X037305Y015550D01*
X037365Y015650D01*
X037365Y019650D02*
X037305Y019750D01*
X037105Y019750D01*
X036705Y020150D01*
X028405Y020150D01*
X026905Y022650D02*
X026905Y023350D01*
X030905Y027350D01*
X030905Y027650D01*
X031905Y027650D02*
X031905Y025150D01*
X033305Y023750D01*
X034905Y023750D01*
X035905Y022750D01*
X035905Y022650D01*
X036905Y022650D02*
X036905Y024150D01*
X032505Y028550D01*
X025505Y028550D01*
X025105Y028150D01*
X025105Y027950D01*
X023905Y026750D01*
X021105Y026750D01*
X019505Y025150D01*
X019405Y025150D01*
X018505Y024350D02*
X018505Y026950D01*
X020305Y026950D01*
X020905Y027550D01*
X020905Y027650D01*
X020505Y028550D02*
X019705Y027750D01*
X018105Y027750D01*
X017305Y028550D01*
X015305Y028550D01*
X012505Y025750D01*
X012905Y023750D02*
X014505Y023750D01*
X015905Y025150D01*
X015905Y027650D01*
X016905Y027650D02*
X016905Y023750D01*
X015705Y023750D01*
X014905Y022950D01*
X014905Y021750D01*
X020105Y021750D01*
X020905Y022550D01*
X020905Y022650D01*
X021905Y022650D02*
X021905Y022550D01*
X024705Y022550D01*
X025305Y023350D02*
X023505Y023350D01*
X021705Y024150D02*
X026705Y024150D01*
X027905Y025350D01*
X029705Y027150D02*
X029305Y027550D01*
X026905Y027550D01*
X026905Y027650D01*
X024305Y028150D02*
X024105Y028150D01*
X023705Y027750D01*
X023105Y027750D01*
X022305Y028550D01*
X020505Y028550D01*
X024305Y028550D02*
X024305Y028150D01*
X024305Y028550D02*
X024405Y028610D01*
X023405Y025150D02*
X021705Y025150D01*
X019105Y022550D01*
X018505Y024350D02*
X016905Y022750D01*
X016905Y022650D01*
X017905Y020150D02*
X017505Y019750D01*
X012905Y019750D01*
X012885Y019650D01*
X013905Y017750D02*
X015105Y018950D01*
X019905Y018950D01*
X019905Y020150D01*
X020505Y020950D02*
X023505Y020950D01*
X024305Y020150D01*
X024405Y020150D01*
X025905Y022650D02*
X025905Y022750D01*
X025305Y023350D01*
X028305Y015350D02*
X030905Y012750D01*
X030905Y012650D01*
X026905Y012650D02*
X026905Y014350D01*
X020905Y012750D02*
X020905Y012650D01*
X020905Y012750D02*
X018105Y012750D01*
X016905Y013950D01*
X016705Y013950D01*
X015905Y012750D02*
X015905Y012650D01*
X015905Y012750D02*
X014905Y013750D01*
X011705Y013750D01*
X010305Y015150D01*
X010305Y016750D01*
X011305Y016750D01*
X011905Y017350D01*
X011905Y017650D01*
X013405Y017650D02*
X013505Y017750D01*
X013905Y017750D01*
X012905Y014750D02*
X012885Y014650D01*
X012905Y014750D02*
X018505Y014750D01*
X019705Y013550D01*
X011905Y022650D02*
X011905Y022750D01*
X012905Y023750D01*
D16*
X012505Y025750D03*
X019105Y022550D03*
X020505Y020950D03*
X020505Y018550D03*
X020705Y016750D03*
X019105Y016950D03*
X017505Y016350D03*
X016705Y013950D03*
X019705Y013550D03*
X023705Y011750D03*
X022705Y008350D03*
X024905Y007150D03*
X019105Y001750D03*
X017505Y005150D03*
X013305Y003750D03*
X028305Y015350D03*
X024705Y017550D03*
X024705Y022550D03*
X023505Y023350D03*
X021705Y024150D03*
X027905Y025350D03*
X029705Y027150D03*
X037905Y017950D03*
X034105Y011750D03*
X034905Y009350D03*
M02*
