G75*
G70*
%OFA0B0*%
%FSLAX24Y24*%
%IPPOS*%
%LPD*%
%AMOC8*
5,1,8,0,0,1.08239X$1,22.5*
%
%ADD10C,0.0000*%
D10*
X008905Y000150D02*
X008905Y030150D01*
X038905Y030150D01*
X038905Y000150D01*
X008905Y000150D01*
X013280Y005150D02*
X013282Y005200D01*
X013288Y005249D01*
X013298Y005298D01*
X013311Y005345D01*
X013329Y005392D01*
X013350Y005437D01*
X013374Y005480D01*
X013402Y005521D01*
X013433Y005560D01*
X013467Y005596D01*
X013504Y005630D01*
X013544Y005660D01*
X013585Y005687D01*
X013629Y005711D01*
X013674Y005731D01*
X013721Y005747D01*
X013769Y005760D01*
X013818Y005769D01*
X013868Y005774D01*
X013917Y005775D01*
X013967Y005772D01*
X014016Y005765D01*
X014065Y005754D01*
X014112Y005740D01*
X014158Y005721D01*
X014203Y005699D01*
X014246Y005674D01*
X014286Y005645D01*
X014324Y005613D01*
X014360Y005579D01*
X014393Y005541D01*
X014422Y005501D01*
X014448Y005459D01*
X014471Y005415D01*
X014490Y005369D01*
X014506Y005322D01*
X014518Y005273D01*
X014526Y005224D01*
X014530Y005175D01*
X014530Y005125D01*
X014526Y005076D01*
X014518Y005027D01*
X014506Y004978D01*
X014490Y004931D01*
X014471Y004885D01*
X014448Y004841D01*
X014422Y004799D01*
X014393Y004759D01*
X014360Y004721D01*
X014324Y004687D01*
X014286Y004655D01*
X014246Y004626D01*
X014203Y004601D01*
X014158Y004579D01*
X014112Y004560D01*
X014065Y004546D01*
X014016Y004535D01*
X013967Y004528D01*
X013917Y004525D01*
X013868Y004526D01*
X013818Y004531D01*
X013769Y004540D01*
X013721Y004553D01*
X013674Y004569D01*
X013629Y004589D01*
X013585Y004613D01*
X013544Y004640D01*
X013504Y004670D01*
X013467Y004704D01*
X013433Y004740D01*
X013402Y004779D01*
X013374Y004820D01*
X013350Y004863D01*
X013329Y004908D01*
X013311Y004955D01*
X013298Y005002D01*
X013288Y005051D01*
X013282Y005100D01*
X013280Y005150D01*
X033280Y005150D02*
X033282Y005200D01*
X033288Y005249D01*
X033298Y005298D01*
X033311Y005345D01*
X033329Y005392D01*
X033350Y005437D01*
X033374Y005480D01*
X033402Y005521D01*
X033433Y005560D01*
X033467Y005596D01*
X033504Y005630D01*
X033544Y005660D01*
X033585Y005687D01*
X033629Y005711D01*
X033674Y005731D01*
X033721Y005747D01*
X033769Y005760D01*
X033818Y005769D01*
X033868Y005774D01*
X033917Y005775D01*
X033967Y005772D01*
X034016Y005765D01*
X034065Y005754D01*
X034112Y005740D01*
X034158Y005721D01*
X034203Y005699D01*
X034246Y005674D01*
X034286Y005645D01*
X034324Y005613D01*
X034360Y005579D01*
X034393Y005541D01*
X034422Y005501D01*
X034448Y005459D01*
X034471Y005415D01*
X034490Y005369D01*
X034506Y005322D01*
X034518Y005273D01*
X034526Y005224D01*
X034530Y005175D01*
X034530Y005125D01*
X034526Y005076D01*
X034518Y005027D01*
X034506Y004978D01*
X034490Y004931D01*
X034471Y004885D01*
X034448Y004841D01*
X034422Y004799D01*
X034393Y004759D01*
X034360Y004721D01*
X034324Y004687D01*
X034286Y004655D01*
X034246Y004626D01*
X034203Y004601D01*
X034158Y004579D01*
X034112Y004560D01*
X034065Y004546D01*
X034016Y004535D01*
X033967Y004528D01*
X033917Y004525D01*
X033868Y004526D01*
X033818Y004531D01*
X033769Y004540D01*
X033721Y004553D01*
X033674Y004569D01*
X033629Y004589D01*
X033585Y004613D01*
X033544Y004640D01*
X033504Y004670D01*
X033467Y004704D01*
X033433Y004740D01*
X033402Y004779D01*
X033374Y004820D01*
X033350Y004863D01*
X033329Y004908D01*
X033311Y004955D01*
X033298Y005002D01*
X033288Y005051D01*
X033282Y005100D01*
X033280Y005150D01*
X033280Y025150D02*
X033282Y025200D01*
X033288Y025249D01*
X033298Y025298D01*
X033311Y025345D01*
X033329Y025392D01*
X033350Y025437D01*
X033374Y025480D01*
X033402Y025521D01*
X033433Y025560D01*
X033467Y025596D01*
X033504Y025630D01*
X033544Y025660D01*
X033585Y025687D01*
X033629Y025711D01*
X033674Y025731D01*
X033721Y025747D01*
X033769Y025760D01*
X033818Y025769D01*
X033868Y025774D01*
X033917Y025775D01*
X033967Y025772D01*
X034016Y025765D01*
X034065Y025754D01*
X034112Y025740D01*
X034158Y025721D01*
X034203Y025699D01*
X034246Y025674D01*
X034286Y025645D01*
X034324Y025613D01*
X034360Y025579D01*
X034393Y025541D01*
X034422Y025501D01*
X034448Y025459D01*
X034471Y025415D01*
X034490Y025369D01*
X034506Y025322D01*
X034518Y025273D01*
X034526Y025224D01*
X034530Y025175D01*
X034530Y025125D01*
X034526Y025076D01*
X034518Y025027D01*
X034506Y024978D01*
X034490Y024931D01*
X034471Y024885D01*
X034448Y024841D01*
X034422Y024799D01*
X034393Y024759D01*
X034360Y024721D01*
X034324Y024687D01*
X034286Y024655D01*
X034246Y024626D01*
X034203Y024601D01*
X034158Y024579D01*
X034112Y024560D01*
X034065Y024546D01*
X034016Y024535D01*
X033967Y024528D01*
X033917Y024525D01*
X033868Y024526D01*
X033818Y024531D01*
X033769Y024540D01*
X033721Y024553D01*
X033674Y024569D01*
X033629Y024589D01*
X033585Y024613D01*
X033544Y024640D01*
X033504Y024670D01*
X033467Y024704D01*
X033433Y024740D01*
X033402Y024779D01*
X033374Y024820D01*
X033350Y024863D01*
X033329Y024908D01*
X033311Y024955D01*
X033298Y025002D01*
X033288Y025051D01*
X033282Y025100D01*
X033280Y025150D01*
X013280Y025150D02*
X013282Y025200D01*
X013288Y025249D01*
X013298Y025298D01*
X013311Y025345D01*
X013329Y025392D01*
X013350Y025437D01*
X013374Y025480D01*
X013402Y025521D01*
X013433Y025560D01*
X013467Y025596D01*
X013504Y025630D01*
X013544Y025660D01*
X013585Y025687D01*
X013629Y025711D01*
X013674Y025731D01*
X013721Y025747D01*
X013769Y025760D01*
X013818Y025769D01*
X013868Y025774D01*
X013917Y025775D01*
X013967Y025772D01*
X014016Y025765D01*
X014065Y025754D01*
X014112Y025740D01*
X014158Y025721D01*
X014203Y025699D01*
X014246Y025674D01*
X014286Y025645D01*
X014324Y025613D01*
X014360Y025579D01*
X014393Y025541D01*
X014422Y025501D01*
X014448Y025459D01*
X014471Y025415D01*
X014490Y025369D01*
X014506Y025322D01*
X014518Y025273D01*
X014526Y025224D01*
X014530Y025175D01*
X014530Y025125D01*
X014526Y025076D01*
X014518Y025027D01*
X014506Y024978D01*
X014490Y024931D01*
X014471Y024885D01*
X014448Y024841D01*
X014422Y024799D01*
X014393Y024759D01*
X014360Y024721D01*
X014324Y024687D01*
X014286Y024655D01*
X014246Y024626D01*
X014203Y024601D01*
X014158Y024579D01*
X014112Y024560D01*
X014065Y024546D01*
X014016Y024535D01*
X013967Y024528D01*
X013917Y024525D01*
X013868Y024526D01*
X013818Y024531D01*
X013769Y024540D01*
X013721Y024553D01*
X013674Y024569D01*
X013629Y024589D01*
X013585Y024613D01*
X013544Y024640D01*
X013504Y024670D01*
X013467Y024704D01*
X013433Y024740D01*
X013402Y024779D01*
X013374Y024820D01*
X013350Y024863D01*
X013329Y024908D01*
X013311Y024955D01*
X013298Y025002D01*
X013288Y025051D01*
X013282Y025100D01*
X013280Y025150D01*
M02*
